PathFileType	4	(X/Y/Z)	KinectAzureSkeleton.trc
DateRate	CameraRate	NumFrames	NumMarkers	Units	OrigDateRate	OrigDataStartFrame	OrigNumFrames
30	30	6	32	mm	30	92	183
Frame#	Time			PELVIS			SPINE_NAVAL			SPINE_CHEST			NECK			CLAVICLE_LEFT			SHOULDER_LEFT			ELBOW_LEFT			WRIST_LEFT			HAND_LEFT			HANDTIP_LEFT			THUMB_LEFT			CLAVICLE_RIGHT			SHOULDER_RIGHT			ELBOW_RIGHT			WRIST_RIGHT			HAND_RIGHT			HANDTIP_RIGHT			THUMB_RIGHT			HIP_LEFT			KNEE_LEFT			ANKLE_LEFT			FOOT_LEFT			HIP_RIGHT			KNEE_RIGHT			ANKLE_RIGHT			FOOT_RIGHT			HEAD			NOSE			EYE_LEFT			EAR_LEFT			EYE_RIGHT			EAR_RIGHT
		X1	Y1	Z1	X2	Y2	Z2	X3	Y3	Z3	X4	Y4	Z4	X5	Y5	Z5	X6	Y6	Z6	X7	Y7	Z7	X8	Y8	Z8	X9	Y9	Z9	X10	Y10	Z10	X11	Y11	Z11	X12	Y12	Z12	X13	Y13	Z13	X14	Y14	Z14	X15	Y15	Z15	X16	Y16	Z16	X17	Y17	Z17	X18	Y18	Z18	X19	Y19	Z19	X20	Y20	Z20	X21	Y21	Z21	X22	Y22	Z22	X23	Y23	Z23	X24	Y24	Z24	X25	Y25	Z25	X26	Y26	Z26	X27	Y27	Z27	X28	Y28	Z28	X29	Y29	Z29	X30	Y30	Z30	X31	Y31	Z31	X32	Y32	Z32

91	3.084400	-3515.904541	36.520046	199.621475	-3510.747314	216.134918	205.969574	-3513.066650	359.852417	207.239014	-3514.755859	578.648254	207.686920	-3527.998535	544.166321	186.475708	-3531.669189	533.313110	42.861820	-3591.670410	267.601715	-15.113793	-3562.479492	36.080524	-28.709213	-3568.800781	-60.566185	-22.603394	-3578.305908	-164.602127	8.137601	-3504.646484	-94.920349	1.184620	-3522.962646	542.533936	237.699234	-3467.752441	512.469360	354.380341	-3444.983887	230.440613	376.010742	-3391.057617	2.038822	345.095367	-3457.328369	-78.672493	348.600403	-3527.253174	-156.248032	325.140015	-3436.507324	-130.272232	294.056580	-3521.016602	39.907413	107.931511	-3399.927734	-344.160980	83.168388	-3270.484375	-706.529602	58.436626	-3083.065186	-721.296326	41.030960	-3511.293701	33.462196	282.302155	-3633.766357	-350.480865	277.606659	-3783.932861	-709.307922	254.894257	-3654.470459	-824.935242	261.603363	-3484.123779	655.037598	205.729538	-3355.563721	751.590576	186.335678	-3397.559326	768.697388	152.783630	-3507.448486	720.781311	108.602287	-3386.798096	773.419495	221.927216	-3485.521973	731.198853	298.784943
92	3.117733	-3480.046631	30.499823	196.026642	-3472.802979	208.425797	201.623779	-3474.241699	350.848206	202.223190	-3476.569092	567.635986	200.451599	-3489.084961	533.218872	179.471466	-3489.848389	521.083801	37.233906	-3545.765137	256.033417	-15.465561	-3508.708740	27.802795	-29.052769	-3516.791504	-68.003708	-30.671213	-3494.967285	-159.157715	22.790897	-3452.695557	-105.049835	-14.096633	-3485.301025	532.123108	230.345886	-3435.922852	496.145905	346.599945	-3402.841309	217.537277	365.236755	-3296.750488	13.535112	318.957947	-3331.573730	-83.750481	325.515961	-3433.454590	-113.172043	327.633148	-3401.954346	-86.863670	293.930206	-3483.251465	33.491428	105.075470	-3361.292236	-346.552216	82.239998	-3238.194092	-707.562561	59.940128	-3053.229492	-726.331238	39.065762	-3477.155762	27.798870	278.041168	-3600.770996	-351.929993	274.877869	-3771.324219	-697.586670	252.533615	-3658.343018	-827.267944	259.269623	-3446.403564	643.402588	198.475479	-3324.341309	745.763611	179.157669	-3366.509521	759.961121	145.326996	-3472.169678	705.962646	101.199272	-3356.780273	766.074951	213.865936	-3452.858154	719.812927	289.684174
93	3.151066	-3445.745361	27.767122	189.937759	-3437.927002	206.640839	195.342697	-3440.572021	349.818512	195.556992	-3446.756836	567.644653	190.126007	-3457.946777	532.486938	169.163986	-3453.780762	511.269928	27.272612	-3502.496582	242.472504	-21.280636	-3479.824951	11.094481	-34.691013	-3474.587158	-85.305588	-29.508802	-3462.787354	-186.101578	8.843828	-3406.045410	-112.000420	-9.325981	-3455.973877	532.259583	220.428574	-3409.230713	492.888397	337.475067	-3357.403564	216.420654	365.806488	-3233.912598	19.093096	328.080444	-3238.931396	-84.091072	315.258209	-3335.050537	-129.988724	320.405151	-3310.152588	-102.494949	290.470581	-3446.361816	30.559038	98.432533	-3313.119141	-348.074066	77.271049	-3244.148926	-725.644226	61.522469	-3060.491943	-758.749878	37.985725	-3445.188965	25.246216	272.451935	-3567.249023	-357.267059	271.160065	-3761.973389	-692.374939	249.474533	-3656.802734	-829.805786	250.462296	-3417.747559	644.329529	187.980957	-3287.166504	738.080505	174.227707	-3325.923828	753.773193	136.680496	-3432.164307	704.908020	86.417015	-3320.728760	761.964966	205.875732	-3425.529785	724.959167	276.251770
94	3.184400	-3404.113281	22.910706	180.246887	-3398.232666	202.929428	183.314270	-3403.368164	346.841095	181.597519	-3413.779785	565.641846	173.010880	-3424.205566	529.782471	152.357468	-3421.865234	499.794617	11.183798	-3465.895020	227.161285	-28.689533	-3424.293213	-3.263593	-33.103474	-3457.605225	-93.900345	-44.450550	-3485.183105	-191.408340	-4.010838	-3413.140625	-148.041092	-13.214811	-3422.566406	530.311829	203.922409	-3376.602295	489.253357	321.542572	-3333.053223	210.024567	352.623230	-3220.910889	3.074870	323.654877	-3228.882080	-101.308739	324.119843	-3330.002197	-136.983002	322.325897	-3297.811523	-121.123947	293.295380	-3404.428223	24.489532	88.192444	-3274.991211	-358.195099	74.094589	-3214.235107	-739.591614	64.810532	-3030.888916	-783.117554	48.328724	-3403.828369	21.483683	263.256378	-3525.416992	-363.549164	267.045776	-3747.758301	-683.869141	248.157181	-3650.516113	-828.176941	251.085968	-3386.086670	643.275085	169.957413	-3253.165283	736.226440	165.774399	-3288.897705	752.047180	124.946091	-3391.915527	703.465393	66.529976	-3289.076416	760.822449	194.663452	-3400.066895	725.174500	257.213257
95	3.217733	-3365.646240	23.132362	172.725967	-3358.468750	205.492615	174.166702	-3365.220703	351.207245	171.008575	-3380.987061	572.413330	158.928543	-3390.351074	535.543091	138.380722	-3380.211182	499.448395	-2.970129	-3420.081787	222.450607	-42.954487	-3383.570313	-11.556119	-57.231476	-3422.222168	-98.205826	-30.748989	-3321.788330	-133.909363	-1.477521	-3376.007080	-159.260742	-44.017822	-3389.495605	536.861023	190.628510	-3345.382324	494.102997	310.315704	-3308.425781	210.565323	345.090820	-3197.816406	-1.971737	327.088196	-3193.415283	-107.898590	323.983337	-3293.527344	-149.316055	332.197662	-3263.754395	-135.359970	300.458008	-3365.425537	23.860592	79.451157	-3237.260986	-364.864532	65.750854	-3196.455811	-754.086731	60.431820	-3012.044922	-802.665466	41.437244	-3365.844482	22.472313	256.835907	-3479.696289	-370.424835	262.282410	-3731.257080	-674.775940	239.595688	-3641.135742	-826.214783	245.490845	-3354.794678	651.674866	155.106277	-3224.615967	751.158081	168.458939	-3256.565186	766.911682	123.630440	-3351.414795	715.313354	51.799084	-3265.090820	773.788269	193.973511	-3382.341064	731.496277	243.254669
96	3.251066	-3324.271973	29.560158	166.804779	-3320.925781	213.131195	167.156952	-3329.200195	359.620880	163.058624	-3346.553711	581.985718	149.909683	-3355.560059	544.747498	129.318466	-3343.777588	510.705231	-13.318643	-3375.000732	231.978806	-60.377838	-3335.087158	-2.683029	-78.104881	-3378.128906	-85.017693	-112.580650	-3397.413330	-176.062195	-51.715645	-3345.614990	-151.414536	-87.153099	-3355.089355	546.285156	181.878830	-3309.995850	516.032471	305.848114	-3279.544434	230.825302	347.038239	-3177.969727	11.669249	338.185822	-3171.974365	-94.636360	331.254700	-3265.654297	-150.778427	326.838806	-3238.970215	-121.683029	297.931213	-3323.519287	29.726454	72.970520	-3200.088379	-363.312561	68.032890	-3191.525879	-756.958618	68.172676	-3007.174561	-813.298340	64.941223	-3324.949707	29.406826	251.419250	-3414.693359	-372.010803	264.980103	-3688.976563	-660.069824	254.973648	-3633.267090	-828.447693	258.105896	-3320.744385	661.892944	145.938461	-3190.931885	763.947998	154.898544	-3224.698975	779.134888	110.772331	-3321.547363	725.528687	41.723404	-3231.161133	786.216187	181.745529	-3346.861816	742.139343	235.146622
